<?xml version="1.0" encoding="iso-8859-1"?>
<!-- Generator: Adobe Illustrator 19.2.1, SVG Export Plug-In . SVG Version: 6.00 Build 0)  -->
<svg version="1.1" id="Layer_1" xmlns="http://www.w3.org/2000/svg" xmlns:xlink="http://www.w3.org/1999/xlink" x="0px" y="0px"
	 viewBox="0 0 216.616 221.07" style="enable-background:new 0 0 216.616 221.07;" xml:space="preserve">
<g>
	<path style="fill:#FFFFFF;" d="M100.418,56.866C84.85,48.961,78.616,29.865,86.521,14.297
		c6.524-12.849,22.285-17.991,35.131-11.468c10.671,5.418,14.944,18.508,9.526,29.18c-4.534,8.93-15.486,12.509-24.42,7.972
		c-3.652-1.854-6.363-5.019-7.634-8.912s-0.949-8.048,0.905-11.7c3.263-6.423,11.146-8.994,17.563-5.733
		c5.531,2.809,7.747,9.594,4.94,15.126l-7.135-3.62c0.813-1.6,0.172-3.561-1.428-4.373c-1.206-0.612-2.578-0.718-3.864-0.299
		c-1.286,0.42-2.332,1.315-2.944,2.522c-0.887,1.746-1.04,3.733-0.433,5.595c0.607,1.861,1.903,3.375,3.65,4.262
		c4.996,2.536,11.128,0.535,13.665-4.461c1.657-3.264,1.944-6.978,0.808-10.458c-1.136-3.48-3.56-6.309-6.823-7.967
		c-8.915-4.526-19.85-0.956-24.376,7.958c-5.907,11.635-1.248,25.907,10.386,31.814L100.418,56.866z"/>
	<g>
		<path style="fill:#FFFFFF;" d="M72.308,105.362c-8.94,0-16.188,7.247-16.188,16.187s7.247,16.188,16.188,16.188
			s16.188-7.247,16.188-16.188S81.248,105.362,72.308,105.362z M74.422,133.07c-4.582,0-8.296-3.714-8.296-8.296
			s3.714-8.296,8.296-8.296s8.296,3.714,8.296,8.296S79.004,133.07,74.422,133.07z"/>
		<path style="fill:#FFFFFF;" d="M128.121,121.55c0,8.94,7.247,16.188,16.188,16.188s16.188-7.247,16.188-16.188
			s-7.247-16.188-16.188-16.187C135.368,105.362,128.121,112.61,128.121,121.55z M133.898,124.774c0-4.582,3.714-8.296,8.296-8.296
			s8.296,3.714,8.296,8.296s-3.714,8.296-8.296,8.296S133.898,129.356,133.898,124.774z"/>
	</g>
	<g>
		<path style="fill:#FFFFFF;" d="M108.088,179.917c-24.87,0-46.298-6.69-56.121-16.333c4.304,16.537,27.863,29.182,56.288,29.182
			c28.68,0,52.403-12.872,56.396-29.626C155.039,173.02,133.338,179.917,108.088,179.917z"/>
	</g>
	<g>
		<path style="fill:#FFFFFF;" d="M188.634,89.633c-2.406,0-4.742,0.322-6.972,0.927C166.567,65.838,139.334,49.3,108.31,49.3
			c-31.028,0-58.261,16.539-73.357,41.26c-2.229-0.605-4.565-0.927-6.97-0.927C12.553,89.633,0,102.867,0,119.133
			c0,14.625,10.15,26.792,23.413,29.1c6.305,41.188,41.973,72.837,84.897,72.837c42.921,0,78.59-31.65,84.894-72.837
			c13.263-2.307,23.412-14.475,23.412-29.1C216.616,102.867,204.063,89.633,188.634,89.633z M22.551,139.804
			C14.167,137.25,8,128.961,8,119.133c0-11.855,8.964-21.5,19.983-21.5c1.01,0,1.995,0.107,2.966,0.264
			c-5.461,11.283-8.526,23.933-8.526,37.286C22.423,136.734,22.469,138.274,22.551,139.804z M185.997,140.423
			c-0.18,2.693-0.498,5.347-0.946,7.959c-6.291,36.678-38.297,64.687-76.741,64.687c-38.448,0-70.454-28.009-76.745-64.687
			c-0.448-2.612-0.766-5.266-0.946-7.959c-0.116-1.734-0.196-3.478-0.196-5.241c0-12.322,2.888-23.977,8.004-34.344
			c1.189-2.409,2.503-4.745,3.927-7.006C56.149,71.909,80.548,57.3,108.31,57.3c27.76,0,52.158,14.61,65.953,36.533
			c1.423,2.262,2.737,4.597,3.926,7.006c5.116,10.367,8.004,22.023,8.004,34.344C186.193,136.946,186.113,138.689,185.997,140.423z
			 M194.066,139.804c0.081-1.529,0.128-3.068,0.128-4.618c0-13.354-3.065-26.005-8.527-37.29c0.971-0.157,1.956-0.264,2.967-0.264
			c11.019,0,19.982,9.645,19.982,21.5C208.616,128.961,202.449,137.25,194.066,139.804z"/>
	</g>
</g>
</svg>
