<?xml version="1.0" encoding="utf-8"?>
<!-- Generator: Adobe Illustrator 19.2.1, SVG Export Plug-In . SVG Version: 6.00 Build 0)  -->
<svg version="1.1" id="Layer_1" xmlns="http://www.w3.org/2000/svg" xmlns:xlink="http://www.w3.org/1999/xlink" x="0px" y="0px"
	 viewBox="0 0 171.8 171.8" style="enable-background:new 0 0 171.8 171.8;" xml:space="preserve">
<style type="text/css">
	.st0{fill:#FFFFFF;}
</style>
<g>
	<path class="st0" d="M78.8,33.5c-15.5,0-28.2,12.6-28.2,28.2c0,15.5,12.6,28.2,28.2,28.2c8.1,0,15.4-3.5,20.5-8.9
		c1.3,1.7,2.3,3.6,3.1,5.4c-7.8,0.5-16.7,3.9-22.8,10.9c-10.1,11.6-9.1,29.3-3.6,36.6c-8.3-0.1-13.9-1.8-16.8-5
		c-1.5-1.6-4-1.8-5.6-0.3c-1.6,1.5-1.8,4-0.3,5.6c4.6,5.2,12.4,7.7,23.8,7.7h3c23.2,0,42.2-17.7,44.4-40.3c0,0,0,0,0,0
		C128.8,76.5,109,33.5,78.8,33.5z"/>
</g>
</svg>
