<?xml version="1.0" encoding="iso-8859-1"?>
<!-- Generator: Adobe Illustrator 19.2.1, SVG Export Plug-In . SVG Version: 6.00 Build 0)  -->
<svg version="1.1" id="Layer_1" xmlns="http://www.w3.org/2000/svg" xmlns:xlink="http://www.w3.org/1999/xlink" x="0px" y="0px"
	 viewBox="0 0 258.683 298.266" style="enable-background:new 0 0 258.683 298.266;" xml:space="preserve">
<g>
	<g>
		<path style="fill:#FFFFFF;" d="M114.375,182.558c-8.94,0-16.188,7.247-16.188,16.188s7.247,16.188,16.188,16.188
			s16.188-7.247,16.188-16.188S123.315,182.558,114.375,182.558z M116.489,210.267c-4.582,0-8.296-3.714-8.296-8.296
			s3.714-8.296,8.296-8.296s8.296,3.714,8.296,8.296S121.071,210.267,116.489,210.267z"/>
		<path style="fill:#FFFFFF;" d="M170.188,198.746c0,8.94,7.247,16.188,16.188,16.188s16.188-7.247,16.188-16.188
			s-7.247-16.188-16.188-16.188S170.188,189.806,170.188,198.746z M175.965,201.97c0-4.582,3.714-8.296,8.296-8.296
			s8.296,3.714,8.296,8.296s-3.714,8.296-8.296,8.296S175.965,206.552,175.965,201.97z"/>
	</g>
	<g>
		<path style="fill:#FFFFFF;" d="M150.154,257.113c-24.87,0-46.298-6.69-56.121-16.333c4.304,16.537,27.863,29.182,56.288,29.182
			c28.68,0,52.403-12.872,56.396-29.626C197.106,250.216,175.404,257.113,150.154,257.113z"/>
	</g>
	<path style="fill:none;" d="M236.132,217c8.384-2.555,14.551-10.844,14.551-20.671c0-11.855-8.964-21.5-19.982-21.5
		c-1.011,0-1.996,0.107-2.967,0.264c5.461,11.284,8.527,23.935,8.527,37.29C236.26,213.932,236.214,215.471,236.132,217z"/>
	<path style="fill:none;" d="M73.016,175.093c-0.97-0.156-1.955-0.264-2.966-0.264c-11.019,0-19.983,9.645-19.983,21.5
		c0,9.827,6.167,18.116,14.551,20.671c-0.082-1.531-0.128-3.071-0.128-4.622C64.49,199.026,67.555,186.376,73.016,175.093z"/>
	<path style="fill:#FFFFFF;" d="M239.741,168.418c-13.079-40.95-48.141-70.276-89.366-70.276c-6.439,0-12.727,0.719-18.805,2.082
		l0.001-0.003c0,0-0.018,0.005-0.041,0.012c-8.046,1.808-15.721,4.753-22.889,8.674c-0.971,0.51-1.896,1.033-2.757,1.565
		c-0.04,0.024-0.076,0.051-0.116,0.075c-9.062,5.682-10.585,15.949-10.585,15.949c-10.107-2.543-21.059,14.252-24.263,19.616
		c-0.124,0.211-0.25,0.419-0.373,0.631c-0.049,0.084-0.091,0.157-0.134,0.232c-0.272,0.471-0.423,0.748-0.423,0.748l0.006-0.002
		c-3.641,6.462-6.66,13.399-8.992,20.7c-11.003,3.975-18.937,14.98-18.937,27.909c0,14.625,10.15,26.792,23.413,29.1
		c6.305,41.188,41.973,72.837,84.897,72.837c42.921,0,78.59-31.65,84.894-72.837c13.263-2.307,23.412-14.475,23.412-29.1
		C258.683,183.398,250.746,172.392,239.741,168.418z M64.618,217c-8.384-2.555-14.551-10.844-14.551-20.671
		c0-11.855,8.964-21.5,19.983-21.5c1.01,0,1.995,0.107,2.966,0.264c-5.461,11.283-8.526,23.933-8.526,37.286
		C64.49,213.93,64.536,215.47,64.618,217z M228.064,217.62c-0.18,2.693-0.498,5.347-0.946,7.959
		c-6.291,36.678-38.297,64.687-76.741,64.687c-38.448,0-70.454-28.009-76.745-64.687c-0.448-2.612-0.766-5.266-0.946-7.959
		c-0.116-1.734-0.196-3.478-0.196-5.241c0-12.322,2.888-23.977,8.004-34.344c1.189-2.409,2.503-4.745,3.927-7.006
		c1.018-1.618,2.101-3.191,3.231-4.726l3.448-1.034l-3,15.375c0,0,10.25-12.75,15.75-21c4.833-7.249,5.478-12.159,5.564-13.245
		c16.818,12.859,90.186,28.431,90.186,28.431l-18.75-14.331l31.955,5.409c1.238,1.659,2.419,3.364,3.525,5.121
		c1.423,2.262,2.737,4.597,3.926,7.006c5.116,10.367,8.004,22.023,8.004,34.344C228.26,214.142,228.18,215.885,228.064,217.62z
		 M236.133,217c0.081-1.529,0.128-3.068,0.128-4.618c0-13.354-3.065-26.005-8.527-37.29c0.971-0.157,1.956-0.264,2.967-0.264
		c11.019,0,19.982,9.645,19.982,21.5C250.683,206.157,244.516,214.446,236.133,217z"/>
	<path style="fill:#FFFFFF;" d="M33.722,103.37c0.695-0.446,1.26-1.017,1.689-1.663l36.6,24.366
		c7.454-6.701,16.756-13.777,27.261-20.512s20.817-12.235,30.018-16.211l-6.865-43.429c0.766-0.121,1.521-0.395,2.216-0.841
		c2.686-1.722,3.467-5.295,1.745-7.981c-1.722-2.686-5.295-3.467-7.981-1.745c-2.686,1.722-3.467,5.295-1.745,7.981
		c0.754,1.177,1.864,1.988,3.099,2.383l-11.505,35.871L75.92,63.986c0.973-1.791,0.968-4.043-0.21-5.88
		c-1.722-2.686-5.295-3.467-7.981-1.745c-2.686,1.722-3.467,5.295-1.745,7.981c1.178,1.837,3.222,2.782,5.255,2.645l2.5,36.73
		L36.339,99.2c0.156-1.287-0.117-2.634-0.872-3.811c-1.722-2.686-5.295-3.467-7.981-1.745s-3.467,5.295-1.745,7.981
		C27.463,104.311,31.036,105.092,33.722,103.37z"/>
	<g>
		<polygon style="fill:#FFFFFF;" points="135.571,61.333 137.961,68.997 163.45,58.729 		"/>
		<polygon style="fill:#FFFFFF;" points="115.628,26.048 121.459,31.566 138.676,10.149 		"/>
		<polygon style="fill:#FFFFFF;" points="66.017,27.897 73.698,25.562 63.614,0 		"/>
		<polygon style="fill:#FFFFFF;" points="31.843,46.582 36.392,39.967 12.568,26.274 		"/>
	</g>
	<g>
		<polygon style="fill:#FFFFFF;" points="38.116,126.132 44.907,130.415 28.42,152.399 		"/>
		<polygon style="fill:#FFFFFF;" points="27.623,77.608 27.263,85.628 0,82.188 		"/>
		<polygon style="fill:#FFFFFF;" points="37.265,39.872 31.982,45.917 12.815,26.225 		"/>
	</g>
</g>
</svg>
